<svg width="113" height="14" viewBox="0 0 113 14" fill="none" xmlns="http://www.w3.org/2000/svg">
<path d="M5.96608 3.08775C5.91296 2.6163 5.69383 2.2511 5.30871 1.99213C4.92358 1.72985 4.43886 1.59871 3.85453 1.59871C3.43621 1.59871 3.07432 1.66511 2.76888 1.79791C2.46344 1.92739 2.22605 2.10668 2.05673 2.33576C1.89073 2.56152 1.80773 2.81882 1.80773 3.10767C1.80773 3.35003 1.86417 3.55919 1.97705 3.73515C2.09325 3.91112 2.24431 4.05886 2.43024 4.17838C2.61948 4.29458 2.822 4.39252 3.0378 4.4722C3.2536 4.54856 3.46111 4.61165 3.66031 4.66145L4.65632 4.92041C4.98169 5.00009 5.31535 5.10799 5.65731 5.24411C5.99928 5.38023 6.31634 5.55952 6.6085 5.78196C6.90067 6.0044 7.13639 6.27997 7.31567 6.60865C7.49828 6.93733 7.58958 7.33076 7.58958 7.78892C7.58958 8.36661 7.44017 8.87956 7.14137 9.32776C6.84589 9.77597 6.41594 10.1296 5.85154 10.3885C5.29045 10.6475 4.6115 10.777 3.81469 10.777C3.05108 10.777 2.39039 10.6558 1.83263 10.4134C1.27486 10.1711 0.838277 9.82743 0.522873 9.38254C0.207469 8.93434 0.0331671 8.40313 -3.33011e-05 7.78892H1.54378C1.57367 8.15745 1.69319 8.46455 1.90235 8.71023C2.11483 8.9526 2.38541 9.13354 2.7141 9.25306C3.0461 9.36926 3.40965 9.42736 3.80473 9.42736C4.23966 9.42736 4.62644 9.3593 4.96509 9.22318C5.30705 9.08374 5.57597 8.89118 5.77186 8.64549C5.96774 8.39649 6.06568 8.10599 6.06568 7.77398C6.06568 7.47186 5.97936 7.22452 5.80672 7.03195C5.63739 6.83939 5.40665 6.68003 5.11449 6.55387C4.82564 6.42771 4.49862 6.31649 4.13342 6.2202L2.92824 5.89152C2.11151 5.66908 1.4641 5.34205 0.986018 4.91045C0.511253 4.47884 0.27387 3.9078 0.27387 3.19731C0.27387 2.60966 0.433232 2.09672 0.751956 1.65847C1.07068 1.22022 1.50228 0.879921 2.04677 0.637559C2.59126 0.391876 3.20546 0.269034 3.88939 0.269034C4.57996 0.269034 5.18919 0.390215 5.71707 0.632578C6.24828 0.874941 6.66661 1.20861 6.97205 1.63357C7.27749 2.05521 7.43685 2.53994 7.45013 3.08775H5.96608ZM9.30894 10.6076V2.95827H10.7382V4.20328H10.8328C10.9922 3.78164 11.2528 3.45295 11.6147 3.21723C11.9766 2.97819 12.4099 2.85866 12.9145 2.85866C13.4258 2.85866 13.8541 2.97819 14.1994 3.21723C14.548 3.45627 14.8053 3.78496 14.9713 4.20328H15.0509C15.2336 3.79492 15.5241 3.46955 15.9225 3.22719C16.3209 2.98151 16.7956 2.85866 17.3468 2.85866C18.0406 2.85866 18.6067 3.07613 19.045 3.51105C19.4865 3.94598 19.7073 4.60169 19.7073 5.47818V10.6076H18.2183V5.61762C18.2183 5.09969 18.0772 4.72453 17.795 4.49212C17.5128 4.25972 17.1758 4.14352 16.784 4.14352C16.2993 4.14352 15.9225 4.29292 15.6535 4.59173C15.3846 4.88721 15.2502 5.26735 15.2502 5.73216V10.6076H13.7661V5.523C13.7661 5.10799 13.6366 4.77433 13.3776 4.522C13.1187 4.26968 12.7817 4.14352 12.3667 4.14352C12.0845 4.14352 11.8239 4.21822 11.5848 4.36762C11.3491 4.5137 11.1582 4.71789 11.0121 4.98017C10.8694 5.24245 10.798 5.54624 10.798 5.89152V10.6076H9.30894ZM21.7031 10.6076V2.95827H23.1921V10.6076H21.7031ZM22.4551 1.77799C22.1961 1.77799 21.9736 1.69167 21.7877 1.51903C21.6051 1.34307 21.5138 1.1339 21.5138 0.891541C21.5138 0.645858 21.6051 0.436696 21.7877 0.264054C21.9736 0.0880919 22.1961 0.000110934 22.4551 0.000110934C22.714 0.000110934 22.9348 0.0880919 23.1174 0.264054C23.3033 0.436696 23.3963 0.645858 23.3963 0.891541C23.3963 1.1339 23.3033 1.34307 23.1174 1.51903C22.9348 1.69167 22.714 1.77799 22.4551 1.77799ZM26.6844 0.408476V10.6076H25.1953V0.408476H26.6844ZM31.9844 10.762C31.2307 10.762 30.5817 10.601 30.0372 10.279C29.496 9.95359 29.0777 9.49708 28.7822 8.90944C28.4901 8.31847 28.344 7.62624 28.344 6.83275C28.344 6.04922 28.4901 5.35865 28.7822 4.76105C29.0777 4.16344 29.4894 3.69697 30.0173 3.36165C30.5485 3.02633 31.1693 2.85866 31.8798 2.85866C32.3114 2.85866 32.7297 2.93005 33.1348 3.07281C33.5398 3.21557 33.9034 3.43967 34.2254 3.74512C34.5475 4.05056 34.8014 4.4473 34.9874 4.93535C35.1733 5.42008 35.2663 6.00938 35.2663 6.70327V7.23116H29.1856V6.11562H33.8071C33.8071 5.72386 33.7274 5.37691 33.5681 5.07479C33.4087 4.76935 33.1846 4.52864 32.8957 4.35268C32.6102 4.17672 32.2749 4.08874 31.8898 4.08874C31.4714 4.08874 31.1062 4.19166 30.7942 4.3975C30.4854 4.60003 30.2464 4.86563 30.077 5.19431C29.911 5.51968 29.828 5.87326 29.828 6.25506V7.12658C29.828 7.63786 29.9177 8.07279 30.097 8.43135C30.2796 8.78991 30.5335 9.06382 30.8589 9.25306C31.1843 9.43898 31.5644 9.53194 31.9993 9.53194C32.2815 9.53194 32.5388 9.4921 32.7712 9.41242C33.0036 9.32942 33.2045 9.20658 33.3738 9.0439C33.5432 8.88122 33.6726 8.68035 33.7623 8.44131L35.1716 8.69529C35.0588 9.1103 34.8562 9.47384 34.5641 9.78593C34.2752 10.0947 33.9117 10.3354 33.4734 10.508C33.0385 10.6774 32.5422 10.762 31.9844 10.762ZM37.6405 13.4762C37.4181 13.4762 37.2155 13.4579 37.0329 13.4214C36.8503 13.3882 36.7142 13.3516 36.6246 13.3118L36.9831 12.0917C37.2554 12.1647 37.4977 12.1963 37.7102 12.1863C37.9227 12.1764 38.1103 12.0967 38.273 11.9473C38.439 11.7979 38.585 11.5538 38.7112 11.2152L38.8955 10.7072L36.0967 2.95827H37.6903L39.6275 8.8945H39.7072L41.6445 2.95827H43.2431L40.0907 11.6285C39.9446 12.027 39.7587 12.3639 39.5329 12.6395C39.3072 12.9184 39.0382 13.1275 38.7261 13.267C38.4141 13.4064 38.0522 13.4762 37.6405 13.4762ZM50.3745 4.82579L49.0249 5.06483C48.9685 4.89219 48.8788 4.72785 48.756 4.5718C48.6365 4.41576 48.4738 4.28794 48.2679 4.18834C48.0621 4.08874 47.8048 4.03894 47.496 4.03894C47.0744 4.03894 46.7225 4.13356 46.4403 4.3228C46.1581 4.50872 46.017 4.74943 46.017 5.04491C46.017 5.30055 46.1116 5.5064 46.3008 5.66244C46.4901 5.81848 46.7955 5.9463 47.2171 6.0459L48.4323 6.32479C49.1361 6.48747 49.6607 6.73813 50.006 7.07677C50.3513 7.41542 50.5239 7.85532 50.5239 8.39649C50.5239 8.85466 50.3911 9.26302 50.1255 9.62158C49.8632 9.97683 49.4964 10.2557 49.0249 10.4582C48.5568 10.6608 48.014 10.762 47.3964 10.762C46.5399 10.762 45.841 10.5794 45.2998 10.2142C44.7587 9.84569 44.4267 9.32278 44.3038 8.64549L45.7431 8.42637C45.8327 8.80153 46.017 9.0854 46.2958 9.27796C46.5747 9.4672 46.9383 9.56182 47.3865 9.56182C47.8745 9.56182 48.2646 9.46056 48.5568 9.25804C48.8489 9.0522 48.995 8.80153 48.995 8.50605C48.995 8.26701 48.9054 8.06615 48.7261 7.90346C48.5501 7.74078 48.2796 7.61794 47.9144 7.53494L46.6195 7.25108C45.9057 7.08839 45.3778 6.82943 45.0359 6.47419C44.6972 6.11894 44.5279 5.66908 44.5279 5.12459C44.5279 4.67307 44.6541 4.27798 44.9064 3.93934C45.1587 3.60069 45.5073 3.33675 45.9522 3.14751C46.3971 2.95495 46.9067 2.85866 47.4811 2.85866C48.3078 2.85866 48.9585 3.03795 49.4333 3.39651C49.908 3.75176 50.2218 4.22818 50.3745 4.82579ZM58.8406 10.7521C58.1567 10.7521 57.5674 10.6276 57.0727 10.3786C56.5813 10.1296 56.2028 9.79091 55.9372 9.36262C55.6716 8.93102 55.5388 8.44297 55.5388 7.89848C55.5388 7.48348 55.6251 7.11495 55.7978 6.79291C55.9704 6.46755 56.2111 6.16708 56.5199 5.89152C56.8287 5.61596 57.1856 5.33873 57.5906 5.05985L59.234 3.8995C59.5129 3.71689 59.7304 3.52433 59.8864 3.32181C60.0425 3.11597 60.1205 2.86198 60.1205 2.55986C60.1205 2.32082 60.0176 2.09174 59.8117 1.87261C59.6059 1.65349 59.3303 1.54393 58.985 1.54393C58.746 1.54393 58.5352 1.60203 58.3526 1.71823C58.1733 1.83443 58.0322 1.98383 57.9293 2.16644C57.8297 2.34572 57.7799 2.53496 57.7799 2.73416C57.7799 2.96657 57.8429 3.20063 57.9691 3.43635C58.0986 3.67207 58.2646 3.9161 58.4671 4.16842C58.6696 4.41742 58.8821 4.67639 59.1045 4.94531L63.8406 10.6076H62.1573L58.238 6.00108C57.9093 5.61264 57.6039 5.24743 57.3217 4.90547C57.0395 4.56018 56.8104 4.21158 56.6344 3.85966C56.4618 3.50441 56.3755 3.12095 56.3755 2.70926C56.3755 2.24114 56.4817 1.82613 56.6942 1.46425C56.91 1.09904 57.2105 0.81352 57.5956 0.607678C57.9807 0.401836 58.4322 0.298914 58.9502 0.298914C59.4747 0.298914 59.9246 0.401836 60.2998 0.607678C60.6782 0.810201 60.9688 1.08078 61.1713 1.41943C61.3771 1.75475 61.48 2.12162 61.48 2.52002C61.48 3.00475 61.3589 3.43303 61.1165 3.80488C60.8774 4.1734 60.5471 4.51204 60.1255 4.82081L58.0787 6.32977C57.6803 6.62193 57.403 6.91077 57.247 7.1963C57.0943 7.4785 57.0179 7.69928 57.0179 7.85864C57.0179 8.15081 57.0926 8.42139 57.242 8.67039C57.3947 8.9194 57.6072 9.1186 57.8795 9.268C58.155 9.4174 58.4771 9.4921 58.8456 9.4921C59.2241 9.4921 59.5926 9.41076 59.9512 9.24808C60.313 9.08208 60.6401 8.8447 60.9322 8.53593C61.2277 8.22717 61.4618 7.85698 61.6344 7.42538C61.8071 6.99377 61.8934 6.51071 61.8934 5.97618H63.238C63.238 6.63355 63.1633 7.18966 63.0139 7.6445C62.8645 8.09603 62.6836 8.46455 62.4711 8.75007C62.2619 9.03228 62.0644 9.25306 61.8784 9.41242C61.8187 9.46554 61.7622 9.51866 61.7091 9.57178C61.656 9.6249 61.5996 9.67803 61.5398 9.73115C61.1945 10.0797 60.7762 10.3371 60.2848 10.5031C59.7968 10.6691 59.3154 10.7521 58.8406 10.7521ZM68.8381 10.6076V0.408476H72.4735C73.267 0.408476 73.9244 0.552897 74.4456 0.841741C74.9669 1.13058 75.357 1.52567 75.6159 2.02699C75.8749 2.525 76.0044 3.08609 76.0044 3.71025C76.0044 4.33774 75.8732 4.90215 75.611 5.40347C75.352 5.90148 74.9602 6.29657 74.4357 6.58873C73.9144 6.87757 73.2587 7.02199 72.4685 7.02199H69.9685V5.71722H72.3291C72.8304 5.71722 73.2371 5.6309 73.5492 5.45826C73.8613 5.28229 74.0904 5.04325 74.2365 4.74113C74.3825 4.439 74.4556 4.09538 74.4556 3.71025C74.4556 3.32513 74.3825 2.98317 74.2365 2.68436C74.0904 2.38556 73.8596 2.1515 73.5442 1.98217C73.2321 1.81285 72.8205 1.72819 72.3092 1.72819H70.3769V10.6076H68.8381ZM80.8898 10.762C80.1362 10.762 79.4871 10.601 78.9426 10.279C78.4014 9.95359 77.9831 9.49708 77.6876 8.90944C77.3955 8.31847 77.2494 7.62624 77.2494 6.83275C77.2494 6.04922 77.3955 5.35865 77.6876 4.76105C77.9831 4.16344 78.3948 3.69697 78.9227 3.36165C79.4539 3.02633 80.0747 2.85866 80.7852 2.85866C81.2168 2.85866 81.6352 2.93005 82.0402 3.07281C82.4453 3.21557 82.8088 3.43967 83.1308 3.74512C83.4529 4.05056 83.7069 4.4473 83.8928 4.93535C84.0787 5.42008 84.1717 6.00938 84.1717 6.70327V7.23116H78.091V6.11562H82.7125C82.7125 5.72386 82.6328 5.37691 82.4735 5.07479C82.3141 4.76935 82.09 4.52864 81.8012 4.35268C81.5156 4.17672 81.1803 4.08874 80.7952 4.08874C80.3769 4.08874 80.0117 4.19166 79.6996 4.3975C79.3908 4.60003 79.1518 4.86563 78.9825 5.19431C78.8165 5.51968 78.7335 5.87326 78.7335 6.25506V7.12658C78.7335 7.63786 78.8231 8.07279 79.0024 8.43135C79.185 8.78991 79.439 9.06382 79.7643 9.25306C80.0897 9.43898 80.4698 9.53194 80.9048 9.53194C81.187 9.53194 81.4443 9.4921 81.6767 9.41242C81.9091 9.32942 82.1099 9.20658 82.2793 9.0439C82.4486 8.88122 82.5781 8.68035 82.6677 8.44131L84.0771 8.69529C83.9642 9.1103 83.7616 9.47384 83.4695 9.78593C83.1806 10.0947 82.8171 10.3354 82.3789 10.508C81.9439 10.6774 81.4476 10.762 80.8898 10.762ZM89.0459 10.762C88.3288 10.762 87.703 10.5977 87.1684 10.269C86.6339 9.94031 86.2189 9.48048 85.9234 8.88952C85.6279 8.29855 85.4802 7.60798 85.4802 6.81781C85.4802 6.02432 85.6279 5.33043 85.9234 4.73615C86.2189 4.14186 86.6339 3.68037 87.1684 3.35169C87.703 3.02301 88.3288 2.85866 89.0459 2.85866C89.763 2.85866 90.3889 3.02301 90.9234 3.35169C91.4579 3.68037 91.8729 4.14186 92.1684 4.73615C92.4639 5.33043 92.6116 6.02432 92.6116 6.81781C92.6116 7.60798 92.4639 8.29855 92.1684 8.88952C91.8729 9.48048 91.4579 9.94031 90.9234 10.269C90.3889 10.5977 89.763 10.762 89.0459 10.762ZM89.0509 9.51202C89.5157 9.51202 89.9008 9.38918 90.2063 9.1435C90.5117 8.89782 90.7375 8.57079 90.8835 8.16243C91.033 7.75406 91.1077 7.3042 91.1077 6.81283C91.1077 6.32479 91.033 5.87658 90.8835 5.46822C90.7375 5.05653 90.5117 4.72619 90.2063 4.47718C89.9008 4.22818 89.5157 4.10368 89.0509 4.10368C88.5828 4.10368 88.1943 4.22818 87.8856 4.47718C87.5801 4.72619 87.3527 5.05653 87.2033 5.46822C87.0572 5.87658 86.9842 6.32479 86.9842 6.81283C86.9842 7.3042 87.0572 7.75406 87.2033 8.16243C87.3527 8.57079 87.5801 8.89782 87.8856 9.1435C88.1943 9.38918 88.5828 9.51202 89.0509 9.51202ZM94.2737 13.4762V2.95827H95.7279V4.1983H95.8524C95.9387 4.03894 96.0632 3.85468 96.2259 3.64551C96.3886 3.43635 96.6144 3.25375 96.9032 3.09771C97.192 2.93835 97.5738 2.85866 98.0486 2.85866C98.6661 2.85866 99.2173 3.01471 99.702 3.32679C100.187 3.63887 100.567 4.08874 100.842 4.67639C101.121 5.26403 101.261 5.9712 101.261 6.79789C101.261 7.62458 101.123 8.33341 100.847 8.92438C100.572 9.51202 100.193 9.96521 99.7119 10.2839C99.2305 10.5993 98.6811 10.757 98.0635 10.757C97.5987 10.757 97.2186 10.679 96.9231 10.523C96.631 10.3669 96.4019 10.1843 96.2359 9.97517C96.0699 9.76601 95.942 9.58008 95.8524 9.4174H95.7628V13.4762H94.2737ZM95.7329 6.78295C95.7329 7.3208 95.8109 7.79224 95.9669 8.19729C96.123 8.60233 96.3487 8.9194 96.6442 9.14848C96.9397 9.37424 97.3016 9.48712 97.7299 9.48712C98.1748 9.48712 98.5466 9.36926 98.8454 9.13354C99.1442 8.8945 99.37 8.57079 99.5227 8.16243C99.6787 7.75406 99.7568 7.29424 99.7568 6.78295C99.7568 6.2783 99.6804 5.82512 99.5277 5.42339C99.3783 5.02167 99.1525 4.70461 98.8504 4.4722C98.5516 4.2398 98.1781 4.1236 97.7299 4.1236C97.2983 4.1236 96.9331 4.23482 96.6343 4.45726C96.3388 4.67971 96.1147 4.99013 95.962 5.38853C95.8092 5.78694 95.7329 6.25174 95.7329 6.78295ZM104.418 0.408476V10.6076H102.929V0.408476H104.418ZM109.718 10.762C108.964 10.762 108.315 10.601 107.771 10.279C107.23 9.95359 106.811 9.49708 106.516 8.90944C106.224 8.31847 106.078 7.62624 106.078 6.83275C106.078 6.04922 106.224 5.35865 106.516 4.76105C106.811 4.16344 107.223 3.69697 107.751 3.36165C108.282 3.02633 108.903 2.85866 109.614 2.85866C110.045 2.85866 110.463 2.93005 110.869 3.07281C111.274 3.21557 111.637 3.43967 111.959 3.74512C112.281 4.05056 112.535 4.4473 112.721 4.93535C112.907 5.42008 113 6.00938 113 6.70327V7.23116H106.919V6.11562H111.541C111.541 5.72386 111.461 5.37691 111.302 5.07479C111.142 4.76935 110.918 4.52864 110.629 4.35268C110.344 4.17672 110.009 4.08874 109.624 4.08874C109.205 4.08874 108.84 4.19166 108.528 4.3975C108.219 4.60003 107.98 4.86563 107.811 5.19431C107.645 5.51968 107.562 5.87326 107.562 6.25506V7.12658C107.562 7.63786 107.651 8.07279 107.831 8.43135C108.013 8.78991 108.267 9.06382 108.593 9.25306C108.918 9.43898 109.298 9.53194 109.733 9.53194C110.015 9.53194 110.273 9.4921 110.505 9.41242C110.737 9.32942 110.938 9.20658 111.108 9.0439C111.277 8.88122 111.406 8.68035 111.496 8.44131L112.905 8.69529C112.792 9.1103 112.59 9.47384 112.298 9.78593C112.009 10.0947 111.645 10.3354 111.207 10.508C110.772 10.6774 110.276 10.762 109.718 10.762Z" fill="black"/>
</svg>
